<?xml version="1.0" standalone="no"?>
<!DOCTYPE svg PUBLIC "-//W3C//DTD SVG 1.1//EN" "http://www.w3.org/Graphics/SVG/1.1/DTD/svg11.dtd" >
<svg xmlns="http://www.w3.org/2000/svg">
<metadata>Generated by IcoMoon</metadata>
<defs>
<font id="icomoon" horiz-adv-x="1024">
<font-face units-per-em="1024" ascent="960" descent="-64" />
<missing-glyph horiz-adv-x="1024" />
<glyph unicode="&#x20;" horiz-adv-x="512" d="" />
<glyph unicode="&#xe900;" glyph-name="express" d="M595.592 886.857h125.388c23.083 0 41.796-18.713 41.796-41.796s-18.713-41.796-41.796-41.796h-125.388c-23.083 0-41.796 18.713-41.796 41.796s18.713 41.796 41.796 41.796zM268.184 537.401h-162.523c-0.213 0.007-0.463 0.010-0.714 0.010-13.469 0-24.388-10.919-24.388-24.388s10.919-24.388 24.388-24.388c0.251 0 0.501 0.004 0.75 0.011l-0.036-0.001h162.544c0.213-0.007 0.463-0.010 0.714-0.010 13.469 0 24.388 10.919 24.388 24.388s-10.919 24.388-24.388 24.388c-0.251 0-0.501-0.004-0.75-0.011l0.036 0.001zM260.054 317.973c0 13.469-10.919 24.388-24.388 24.388v0h-162.523c-13.158-0.397-23.674-11.159-23.674-24.377s10.516-23.98 23.638-24.377l0.036-0.001h162.544c13.453 0.012 24.355 10.914 24.367 24.366v0.001zM251.925 244.83h-113.768c-13.158-0.397-23.674-11.159-23.674-24.377s10.516-23.98 23.638-24.377l0.036-0.001h113.768c13.158 0.397 23.674 11.159 23.674 24.377s-10.516 23.98-23.638 24.377l-0.036 0.001zM260.054 415.483c0 13.462-10.907 24.376-24.366 24.388h-211.3c-0.213 0.007-0.463 0.010-0.714 0.010-13.469 0-24.388-10.919-24.388-24.388s10.919-24.388 24.388-24.388c0.251 0 0.501 0.004 0.75 0.011l-0.036-0.001h211.299c13.453 0.012 24.355 10.914 24.367 24.366v0.001zM658.286 366.728v276.313c-152.603 0-276.313-123.709-276.313-276.313s123.709-276.313 276.313-276.313c152.603 0 276.313 123.709 276.313 276.313v0zM925.78 615.936l26.143 26.143c4.638 4.447 7.521 10.694 7.521 17.614 0 13.469-10.919 24.388-24.388 24.388-6.92 0-13.167-2.882-17.606-7.512l-0.008-0.009-27.167-27.167c-50.216 41.606-112.663 70.157-181.202 79.635l-1.905 0.216v43.844h-97.531v-43.886c-70.445-9.695-132.891-38.246-183.715-80.339l0.607 0.488-27.167 27.167c-4.447 4.638-10.694 7.521-17.614 7.521-13.469 0-24.388-10.919-24.388-24.388 0-6.92 2.882-13.167 7.512-17.606l0.009-0.008 25.913-26.102c-60.905-65.152-98.304-152.947-98.304-249.477 0-201.978 163.736-365.714 365.714-365.714s365.714 163.736 365.714 365.714c0 96.53-37.399 184.325-98.497 249.685l0.193-0.209zM658.286 66.048c-166.072 0-300.701 134.628-300.701 300.701s134.628 300.701 300.701 300.701c166.072 0 300.701-134.628 300.701-300.701v0c0-166.072-134.628-300.701-300.701-300.701v0z" />
<glyph unicode="&#xe901;" glyph-name="achievement" d="M0 86.596h1024v-150.596h-1024zM903.528 297.416h-572.236v662.584h-60.224v-662.584h-150.596v-150.596h783.056zM698.796 688.956l140.547 210.82h-447.802v-421.64h447.802z" />
<glyph unicode="&#xe902;" glyph-name="calendar" d="M383.488 405.504c0 12.568-10.188 22.756-22.756 22.756v0h-79.644c-12.568 0-22.756-10.188-22.756-22.756v0-79.644c0-12.568 10.188-22.756 22.756-22.756v0h79.644c12.568 0 22.756 10.188 22.756 22.756v0 79.644zM582.428 405.504c0 12.568-10.188 22.756-22.756 22.756v0h-79.644c-12.568 0-22.756-10.188-22.756-22.756v0-79.644c0-12.568 10.188-22.756 22.756-22.756h79.644c12.568 0 22.756 10.188 22.756 22.756v0zM781.426 405.504c0 12.568-10.188 22.756-22.756 22.756v0h-79.644c-12.568 0-22.756-10.188-22.756-22.756v0-79.644c0-12.568 10.188-22.756 22.756-22.756v0h79.644c12.568 0 22.756 10.188 22.756 22.756v0zM383.488 206.564c0 12.568-10.188 22.756-22.756 22.756v0h-79.644c-12.568 0-22.756-10.188-22.756-22.756v0-79.644c0-12.568 10.188-22.756 22.756-22.756v0h79.644c12.568 0 22.756 10.188 22.756 22.756v0 79.644zM582.428 206.564c0 12.568-10.188 22.756-22.756 22.756v0h-79.644c-12.568 0-22.756-10.188-22.756-22.756v0-79.644c0-12.568 10.188-22.756 22.756-22.756h79.644c12.568 0 22.756 10.188 22.756 22.756v0zM781.426 206.564c0 12.568-10.188 22.756-22.756 22.756v0h-79.644c-12.568 0-22.756-10.188-22.756-22.756v0-79.644c0-12.568 10.188-22.756 22.756-22.756v0h79.644c12.568 0 22.756 10.188 22.756 22.756v0 79.644zM923.705 848.1v-121.572c-0.032-54.801-44.465-99.214-99.271-99.214-0.060 0-0.12 0-0.18 0h-62.569c-0.102 0-0.222-0.001-0.343-0.001-54.909 0-99.459 44.351-99.781 99.184v122.058h-283.25v-122.027c-0.322-54.864-44.873-99.215-99.781-99.215-0.141 0-0.281 0-0.422 0.001h-62.556c-0.068 0-0.148 0-0.228 0-54.806 0-99.239 44.413-99.271 99.212v121.575c-48.513-1.667-87.239-41.268-87.495-89.973v-712.501c0-0.034 0-0.075 0-0.115 0-49.827 40.264-90.251 90.031-90.509h802.386c49.805 0.323 90.055 40.772 90.055 90.622 0 0.001 0 0.001 0 0.002v0 712.476c-0.253 48.672-38.885 88.24-87.164 89.994l-0.161 0.005zM894.521 89.998c0-21.522-17.447-38.969-38.969-38.969h-673.223c-21.522 0-38.969 17.447-38.969 38.969v0 368.014c0 21.522 17.447 38.969 38.969 38.969v0h673.28c21.522 0 38.969-17.447 38.969-38.969v0-368.014zM215.211 692.622h62.123c18.851 0 34.133 15.282 34.133 34.133v0 199.111c0 18.851-15.282 34.133-34.133 34.133v0h-62.123c-18.851 0-34.133-15.282-34.133-34.133v-199.111c0-18.851 15.282-34.133 34.133-34.133v0zM760.604 692.622h62.123c18.851 0 34.133 15.282 34.133 34.133v0 199.111c0 18.851-15.282 34.133-34.133 34.133v0h-62.123c-18.851 0-34.133-15.282-34.133-34.133v0-199.111c0-18.851 15.282-34.133 34.133-34.133v0z" />
<glyph unicode="&#xe903;" glyph-name="data-analytics-1" d="M1006.933 38.4h-17.067v614.4c0 9.426-7.641 17.067-17.067 17.067v0h-268.049c12.62 34.776 21.972 75.266 26.318 117.242l0.187 2.224h87.945c9.424 0.002 17.063 7.642 17.063 17.067 0 4.712-1.91 8.978-4.997 12.066l-136.533 136.533c-3.088 3.087-7.354 4.997-12.066 4.997s-8.978-1.91-12.066-4.997l-136.533-136.533c-3.087-3.088-4.997-7.354-4.997-12.066 0-9.424 7.639-17.065 17.063-17.067h53.88c-20.94-46.677-49.461-86.362-84.414-119.294l-0.185-0.173h-464.213c-9.426 0-17.067-7.641-17.067-17.067v0-614.4h-17.067c-9.426 0-17.067-7.641-17.067-17.067v0-34.133c0-28.277 22.923-51.2 51.2-51.2v0h921.6c28.277 0 51.2 22.923 51.2 51.2v0 34.133c0 9.426-7.641 17.067-17.067 17.067v0zM641.297 800.58c0.648 1.731 1.023 3.732 1.023 5.82 0 9.425-7.64 17.066-17.066 17.067h-37.922l95.334 95.334 95.334-95.334h-62.464c-0.011 0-0.024 0-0.037 0-9.029 0-16.421-7.012-17.027-15.888l-0.003-0.053c-16.715-233.207-194.009-420.354-421.108-452.157l-2.589-0.297-52.907-7.031v187.153c10.953-1.045 23.682-1.64 36.55-1.64 174.726 0 323.799 109.828 381.952 264.216l0.929 2.811zM68.267 635.733h404.975c-59.608-42.572-133.956-68.068-214.26-68.068-16.913 0-33.562 1.131-49.875 3.321l1.906-0.209-3.891 0.546c-0.697 0.101-1.502 0.159-2.321 0.159-9.426 0-17.067-7.641-17.067-17.067 0-0.008 0-0.015 0-0.023v0.001-225.86c0-9.426 7.641-17.067 17.067-17.067v0c0.795 0 1.576 0.056 2.341 0.164l-0.088-0.010 72.158 9.609c186.326 26.112 339.433 146.765 410.931 311.113l1.314 3.391h264.277v-597.333h-34.133v546.133c0 9.426-7.641 17.067-17.067 17.067v0h-187.733v-34.133h170.667v-529.067h-750.933v529.067h34.133v34.133h-51.2c-9.426 0-17.067-7.641-17.067-17.067v0-546.133h-34.133zM989.867-12.8c0-9.426-7.641-17.067-17.067-17.067v0h-921.6c-9.426 0-17.067 7.641-17.067 17.067v0 17.067h955.733zM170.667 55.467h682.667v34.133h-68.267v392.533c0 9.426-7.641 17.067-17.067 17.067v0h-102.4c-9.426 0-17.067-7.641-17.067-17.067v0-392.533h-68.267v256c0 9.426-7.641 17.067-17.067 17.067v0h-102.4c-9.426 0-17.067-7.641-17.067-17.067v0-256h-68.267v170.667c0 9.426-7.641 17.067-17.067 17.067v0h-102.4c-9.426 0-17.067-7.641-17.067-17.067v0-170.667h-68.267zM682.667 465.067h68.267v-375.467h-68.267zM477.867 328.533h68.267v-238.933h-68.267zM273.067 243.2h68.267v-153.6h-68.267zM426.667 960h34.133v-34.133h-34.133zM460.8 925.867h34.133v-34.133h-34.133zM426.667 891.733h34.133v-34.133h-34.133zM392.533 925.867h34.133v-34.133h-34.133zM358.4 823.467h34.133v-34.133h-34.133zM989.867 789.333h34.133v-34.133h-34.133zM955.733 755.2h34.133v-34.133h-34.133zM921.6 789.333h34.133v-34.133h-34.133zM955.733 823.467h34.133v-34.133h-34.133zM887.467 891.733h34.133v-34.133h-34.133zM273.067 448h-34.133v-51.2c0-9.426 7.641-17.067 17.067-17.067v0c61.187 2.744 117.247 22.561 164.14 54.76l-1.068-0.693-18.944 28.399c-35.992-24.526-79.093-41.411-125.617-47.329l-1.445-0.15zM238.933 516.267h34.133v-34.133h-34.133z" />
<glyph unicode="&#xe904;" glyph-name="down-arrow" d="M58.419 502.579h740.71l-204.8 203.981c-10.636 10.584-17.217 25.234-17.217 41.421 0 32.272 26.161 58.433 58.433 58.433 16.085 0 30.652-6.499 41.218-17.015l305.252-303.819c10.581-10.581 17.125-25.198 17.125-41.344s-6.544-30.763-17.125-41.344v0l-305.254-303.821c-10.564-10.513-25.131-17.012-41.216-17.012-32.272 0-58.433 26.161-58.433 58.433 0 16.187 6.582 30.836 17.215 41.419l0.002 0.002 204.8 203.981h-740.71c-32.264 0-58.419 26.155-58.419 58.419s26.155 58.419 58.419 58.419v0z" />
<glyph unicode="&#xe905;" glyph-name="email-1" d="M1023.808 568.538c-0.12 1.278-0.369 2.452-0.737 3.572l0.032-0.114c-0.269 1.129-0.604 2.105-1.020 3.038l0.043-0.108c-0.52 0.993-1.089 1.847-1.735 2.637l0.022-0.027c-0.685 0.991-1.433 1.856-2.264 2.633l-0.009 0.008c-0.272 0.24-0.384 0.56-0.688 0.8l-164.122 127.51v132.12c0 28.292-22.936 51.228-51.228 51.228v0h-184.933l-74.056 57.471c-8.492 6.672-19.336 10.701-31.121 10.701s-22.629-4.029-31.23-10.784l0.109 0.083-74.089-57.503h-184.949c-28.292 0-51.228-22.936-51.228-51.228v0-132.12l-164.074-127.446c-0.288-0.24-0.416-0.56-0.688-0.8-0.84-0.786-1.588-1.651-2.239-2.589l-0.035-0.053c-0.625-0.762-1.194-1.617-1.673-2.526l-0.040-0.083c-0.375-0.825-0.71-1.802-0.953-2.815l-0.023-0.115c-0.332-0.99-0.581-2.147-0.699-3.343l-0.005-0.067c0-0.352-0.208-0.672-0.208-1.025v-580.381c0.026-11.355 3.785-21.827 10.115-30.259l-0.094 0.131c0.096-0.16 0.112-0.336 0.24-0.48s0.368-0.288 0.544-0.48c9.379-12.242 23.991-20.067 40.432-20.107h921.598c16.498 0.035 31.151 7.902 40.443 20.079l0.091 0.124c0.128 0.176 0.336 0.224 0.464 0.384s0.128 0.32 0.24 0.48c6.236 8.301 9.996 18.773 10.021 30.122v580.307c-0.048 0.352-0.24 0.672-0.256 1.025zM501.73 922.379c2.767 2.215 6.318 3.554 10.182 3.554s7.415-1.339 10.214-3.579l-0.033 0.025 39.382-30.561h-98.998zM55.454-29.853l446.292 346.67c2.769 2.209 6.319 3.545 10.182 3.545s7.413-1.336 10.215-3.571l-0.033 0.025 446.404-346.67zM989.885-3.247l-446.772 346.99c-8.494 6.667-19.337 10.693-31.121 10.693s-22.627-4.025-31.231-10.776l0.11 0.083-446.788-346.99v544.778l279.673-217.191c2.792-2.069 6.305-3.312 10.109-3.312 9.434 0 17.081 7.648 17.081 17.081 0 5.316-2.429 10.065-6.237 13.198l-0.030 0.024-284.123 220.633 120.066 93.315v-131.88c0-9.425 7.64-17.065 17.065-17.065s17.065 7.64 17.065 17.065v307.208c0.027 9.404 7.657 17.017 17.065 17.017 0.006 0 0.011 0 0.017 0h580.3c9.425 0 17.065-7.64 17.065-17.065v0-307.176c0-9.425 7.64-17.065 17.065-17.065s17.065 7.64 17.065 17.065v0 131.88l120.066-93.315-284.636-221.017c-4.168-3.146-6.833-8.091-6.833-13.658 0-9.425 7.64-17.065 17.065-17.065 4.062 0 7.793 1.419 10.724 3.789l-0.032-0.025 280.153 217.559v-544.778zM716.792 550.384v68.341c0 113.117-91.699 204.816-204.816 204.816s-204.816-91.699-204.816-204.816c0-113.117 91.699-204.816 204.816-204.816v0c9.425 0 17.065 7.64 17.065 17.065s-7.64 17.065-17.065 17.065v0c-94.258 0-170.669 76.411-170.669 170.669s76.411 170.669 170.669 170.669c94.258 0 170.669-76.411 170.669-170.669v0-68.325c0-18.854-15.284-34.139-34.139-34.139s-34.139 15.284-34.139 34.139v0 68.341c0 9.425-7.64 17.065-17.065 17.065s-17.065-7.64-17.065-17.065v0c0-37.709-30.569-68.277-68.277-68.277s-68.277 30.569-68.277 68.277c0 37.709 30.569 68.277 68.277 68.277v0c9.425 0 17.065 7.64 17.065 17.065s-7.64 17.065-17.065 17.065v0c-0.11 0-0.24 0.001-0.369 0.001-56.585 0-102.456-45.871-102.456-102.456s45.871-102.456 102.456-102.456c26.792 0 51.182 10.283 69.438 27.119l-0.071-0.064c3.701-34.436 32.605-61.015 67.717-61.015 37.602 0 68.085 30.483 68.085 68.085 0 0.041 0 0.083 0 0.124v-0.006z" />
<glyph unicode="&#xe906;" glyph-name="email" d="M678.766 432.055l345.234-218.258v445.538zM0 659.334v-445.684l345.234 218.258zM959.976 789.333h-896c-31.575-0.353-57.583-23.737-62.033-54.124l-0.041-0.343 510.098-336.067 510.098 336.067c-4.493 30.747-30.527 54.139-62.089 54.467h-0.034zM620.154 393.435l-90.551-59.636c-4.961-3.291-11.053-5.25-17.603-5.25s-12.642 1.96-17.722 5.325l0.119-0.074-90.551 59.685-401.798-254.147c4.564-30.572 30.523-53.788 61.951-54.028h896.025c31.453 0.24 57.412 23.457 61.934 53.682l0.043 0.346z" />
<glyph unicode="&#xe907;" glyph-name="Group-73" d="M813.103 788.433c-60.395 104.593-170.72 174.428-297.548 176.868l-0.342 0.005c-5.26 0-10.612 0-15.872 0-127.171-2.445-237.496-72.28-296.991-175.185l-0.9-1.688c-30.974-52.019-49.283-114.705-49.283-181.667 0-63.65 16.543-123.436 45.563-175.293l-0.934 1.818 256.372-469.225c10.943-18.806 31.003-31.247 53.969-31.247s43.027 12.441 53.81 30.951l0.159 0.296 0.326 0.605 256 468.62c28.086 50.040 44.629 109.825 44.629 173.475 0 66.962-18.309 129.648-50.195 183.324l0.912-1.658zM507.299 497.524c-80.178 0-145.175 64.997-145.175 145.175s64.997 145.175 145.175 145.175c80.178 0 145.175-64.997 145.175-145.175v0c-0.106-80.135-65.040-145.069-145.165-145.175h-0.010z" />
<glyph unicode="&#xe908;" glyph-name="Group-82" d="M1032.448 679.637v-449.365l-348.075 220.032zM348.075 450.475l-348.075-220.032v449.195zM1030.485 755.755c-4.461 31.020-30.727 54.635-62.563 54.912h-903.41c-31.865-0.277-58.131-23.892-62.552-54.57l-0.040-0.342 514.304-338.859zM533.973 351.36c-5.002-3.32-11.145-5.297-17.749-5.297s-12.748 1.977-17.869 5.372l0.12-0.075-91.307 60.203-405.12-256.256c4.652-30.767 30.795-54.113 62.438-54.357h903.407c31.694 0.251 57.85 23.64 62.421 54.093l0.043 0.35-405.12 256z" />
<glyph unicode="&#xe909;" glyph-name="Group-553" d="M58.419 502.579h740.71l-204.8 203.981c-10.636 10.584-17.217 25.234-17.217 41.421 0 32.272 26.161 58.433 58.433 58.433 16.085 0 30.652-6.499 41.218-17.015l305.252-303.819c10.581-10.581 17.125-25.198 17.125-41.344s-6.544-30.763-17.125-41.344v0l-305.254-303.821c-10.564-10.513-25.131-17.012-41.216-17.012-32.272 0-58.433 26.161-58.433 58.433 0 16.187 6.582 30.836 17.215 41.419l0.002 0.002 204.8 203.981h-740.71c-32.264 0-58.419 26.155-58.419 58.419s26.155 58.419 58.419 58.419v0z" />
<glyph unicode="&#xe90b;" d="M320 187.733l-320 520.533h640z" />
<glyph unicode="&#xe90c;" d="M704 187.733l-320 520.533h640z" />
<glyph unicode="&#xe90d;" d="M320 187.733l-320 520.533h640z" />
<glyph unicode="&#xe90e;" d="M704 187.733l-320 520.533h640z" />
<glyph unicode="&#xe910;" glyph-name="help" d="M1024 266.872c-0.241 128.44-73.376 239.742-180.23 294.764l-1.862 0.871c-3.834-243.971-200.597-440.734-444.204-444.562l-0.363-0.004c55.746-108.862 167.161-182.079 295.677-182.079 62.104 0 120.215 17.098 169.882 46.843l-1.506-0.836 161.129-44.574-44.574 161.129c28.916 48.050 46.020 106.049 46.020 168.044 0 0.132 0 0.263 0 0.395v-0.021zM782.005 569.013c-0.096 215.864-175.11 390.818-390.987 390.818-215.936 0-390.987-175.051-390.987-390.987 0-73.234 20.134-141.766 55.17-200.361l-0.988 1.783-52.766-190.825 190.825 52.766c56.833-34.067 125.392-54.213 198.656-54.213 215.966 0 391.044 175.058 391.078 391.016v0.003zM330.993 659.998h-59.934c0.006 66.263 53.725 119.978 119.989 119.978 66.268 0 119.989-53.721 119.989-119.989 0-35.011-14.995-66.52-38.914-88.455l-0.089-0.080-51.019-46.652v-46.682h-60.024v73.096l70.475 64.512c12.008 10.909 19.517 26.585 19.517 44.016 0 0.101 0 0.202-0.001 0.303v-0.016c0 33.134-26.86 59.994-59.994 59.994s-59.994-26.86-59.994-59.994v0zM361.111 418.003h59.994v-59.994h-60.115z" />
<glyph unicode="&#xe911;" glyph-name="high" d="M319.968-63.983h-213.312c-11.781 0-21.331 9.55-21.331 21.331v0 213.312c0 11.781 9.55 21.331 21.331 21.331v0h213.312c11.781 0 21.331-9.55 21.331-21.331v0-213.312c0-11.781-9.55-21.331-21.331-21.331v0zM127.987-21.321h170.65v170.65h-170.65zM661.267-63.983h-213.312c-0.010 0-0.021 0-0.032 0-5.889 0-11.219 2.394-15.069 6.262l-0.001 0.001c-3.85 3.884-6.229 9.232-6.229 15.135 0 0.019 0 0.037 0 0.056v-0.003l2.56 426.624c0.068 11.729 9.592 21.212 21.331 21.212 0 0 0 0 0 0h210.752c11.781 0 21.331-9.55 21.331-21.331v0-426.624c0-11.781-9.55-21.331-21.331-21.331v0zM469.423-21.321h170.513v383.962h-168.209zM1002.566-63.983h-213.312c-11.781 0-21.331 9.55-21.331 21.331v0 639.936c0 11.781 9.55 21.331 21.331 21.331v0h213.312c11.781 0 21.331-9.55 21.331-21.331v0-639.936c0-11.781-9.55-21.331-21.331-21.331v0zM810.586-21.321h170.65v597.274h-170.65zM309.61 454.843c-5.893 0.001-11.23 2.38-15.104 6.23l-153.413 153.447c-3.858 3.86-6.245 9.192-6.245 15.081 0 5.497 2.079 10.508 5.494 14.29l-0.017-0.019 125.683 139.54c89.335 103.175 230.974 174.233 352.221 176.554 0.268 0.013 0.581 0.020 0.897 0.020 5.733 0 10.906-2.396 14.574-6.241l0.008-0.008c3.852-3.892 6.231-9.247 6.231-15.158 0-0.112-0.001-0.225-0.003-0.337v0.017c-2.27-121.161-73.379-262.8-176.793-352.426l-139.25-125.427c-3.719-3.387-8.685-5.461-14.135-5.461-0.040 0-0.080 0-0.12 0h0.006zM185.633 630.39l124.83-124.83 124.489 112.151c88.567 76.673 151.11 193.79 161.008 298.21-104.438-9.898-221.503-72.441-297.903-160.735zM367.084 353.682c-0.002 0-0.003 0-0.005 0-2.065 0-4.060 0.299-5.945 0.857l0.148-0.038c-7.42 2.163-13.091 8.032-14.935 15.416l-0.031 0.148-30.171 125.786c-0.277 1.289-0.435 2.771-0.435 4.289 0 11.79 9.558 21.348 21.348 21.348 9.782 0 18.028-6.58 20.553-15.555l0.036-0.15 20-83.618c37.065 58.021 44.369 132.168 45.222 175.547 0.202 11.627 9.675 20.976 21.331 20.976 11.783 0 21.334-9.552 21.334-21.334 0-0.126-0.001-0.252-0.003-0.377v0.019c-1.706-100.939-31.4-185.155-83.396-237.203-3.85-3.862-9.169-6.258-15.047-6.28h-0.004zM180.94 635.544c-0.040 0-0.087 0-0.134 0-1.722 0-3.393 0.218-4.987 0.628l0.138-0.030-125.854 30.154c-9.483 2.295-16.417 10.71-16.417 20.744 0 5.896 2.394 11.233 6.263 15.092v0c51.963 51.963 136.213 81.502 237.186 83.362 0.193 0.006 0.421 0.010 0.649 0.010 11.585 0 20.981-9.37 21.024-20.945v-0.004c0.002-0.113 0.003-0.247 0.003-0.38 0-11.63-9.299-21.087-20.867-21.343h-0.024c-43.43-0.768-117.578-8.14-175.547-45.222l83.618-20c9.435-2.338 16.319-10.732 16.319-20.734 0-11.759-9.514-21.295-21.265-21.331h-0.003zM21.331 319.979c-5.889 0.021-11.22 2.395-15.105 6.231l0.002-0.002c-3.849 3.853-6.23 9.174-6.23 15.051 0 2.191 0.331 4.305 0.945 6.294l-0.040-0.151c7.031 23.618 43.635 142.407 72.304 171.076 15.863 15.099 37.377 24.388 61.061 24.388 48.952 0 88.635-39.683 88.635-88.635 0-23.667-9.276-45.167-24.39-61.064l0.035 0.038c-28.618-28.737-147.527-65.291-171.076-72.338-1.837-0.566-3.95-0.896-6.139-0.904h-0.004zM135.888 501.755c-0.002 0-0.005 0-0.007 0-12.66 0-24.121-5.132-32.416-13.43v0c-12.116-12.116-32.935-65.529-49.232-114.199 48.669 16.297 102.134 37.116 114.199 49.181 8.33 8.321 13.483 19.822 13.483 32.526 0 25.367-20.545 45.935-45.903 45.973h-0.004z" />
<glyph unicode="&#xe912;" glyph-name="left-arrow" d="M940.595 502.579h-740.915l204.8 203.981c10.636 10.584 17.217 25.234 17.217 41.421 0 32.272-26.161 58.433-58.433 58.433-16.085 0-30.652-6.499-41.218-17.015l-305.252-303.819c-10.581-10.581-17.125-25.198-17.125-41.344s6.544-30.763 17.125-41.344v0l305.254-303.821c10.564-10.513 25.131-17.012 41.216-17.012 32.272 0 58.433 26.161 58.433 58.433 0 16.187-6.582 30.836-17.215 41.419l-0.002 0.002-204.8 203.981h740.71c32.264 0 58.419 26.155 58.419 58.419s-26.155 58.419-58.419 58.419v0z" />
<glyph unicode="&#xe913;" glyph-name="loupe" d="M450.966 960c-248.987-0.099-450.792-201.966-450.792-450.966 0-249.062 201.904-450.966 450.966-450.966s450.966 201.904 450.966 450.965v0.001c-0.273 249.013-202.113 450.793-451.124 450.966h-0.017zM450.966 141.349c-203.067 0-367.685 164.618-367.685 367.685s164.618 367.685 367.685 367.685c203.067 0 367.685-164.618 367.685-367.685v0c-0.248-202.967-164.718-367.437-367.661-367.685h-0.024zM1011.754 7.166l-238.644 238.644c-7.534 7.534-17.942 12.194-29.438 12.194-22.993 0-41.632-18.639-41.632-41.632 0-11.496 4.66-21.904 12.194-29.438l238.644-238.644c7.534-7.534 17.942-12.194 29.438-12.194 22.993 0 41.632 18.639 41.632 41.632 0 11.496-4.66 21.904-12.194 29.438v0z" />
<glyph unicode="&#xe914;" glyph-name="map" d="M987.472 960c-5.849-0.045-11.358-1.455-16.239-3.926l0.209 0.096-277.474-138.666-315.066 139.801c-1.152 0.46-2.595 0.922-4.074 1.294l-0.252 0.054c-1.184 0.342-2.671 0.664-4.186 0.896l-0.211 0.027c-1.338 0.117-2.896 0.184-4.469 0.184s-3.13-0.067-4.669-0.198l0.201 0.014c-1.727-0.258-3.213-0.58-4.665-0.986l0.267 0.064c-1.731-0.426-3.175-0.887-4.576-1.433l0.249 0.085c-0.567 0-1.135 0-1.631-0.497l-329.181-146.255c-13.005-5.766-21.926-18.538-21.988-33.399v-804.625c0.031-20.189 16.405-36.544 36.599-36.544 5.366 0 10.463 1.155 15.055 3.23l-0.23-0.093 314.286 139.73 314.286-139.73c0.567 0 1.135 0 1.702 0 3.869-1.772 8.393-2.804 13.158-2.804 5.289 0 10.281 1.272 14.686 3.527l-0.182-0.085c0.567 0 1.277 0 1.844 0.426l292.582 146.255c12.073 6.142 20.203 18.469 20.215 32.697v804.264c0 0.001 0 0.001 0 0.002 0 20.089-16.185 36.397-36.226 36.597h-0.019zM329.181 142.616l-255.982-113.486v724.255l255.982 113.486zM658.362 29.13l-255.982 113.486v724.538l255.982-113.486zM950.943 141.765l-219.454-109.727v722.269l219.383 109.94z" />
<glyph unicode="&#xe915;" glyph-name="Page-1" d="M424.070 360.070c-64.409 60.668-109.257 141.46-124.474 232.294l-0.335 2.42c-0.175 1.318-0.275 2.842-0.275 4.389 0 9.75 3.963 18.574 10.366 24.949l0.001 0.001 79.099 78.981c6.375 6.372 10.319 15.176 10.319 24.902 0 6.979-2.030 13.483-5.533 18.955l0.084-0.141-125.807 195.576c-6.317 10.047-17.343 16.627-29.905 16.627-5.786 0-11.246-1.396-16.062-3.869l0.198 0.092-202.148-95.235c-11.714-5.882-19.612-17.801-19.612-31.565 0-1.283 0.069-2.55 0.202-3.797l-0.013 0.155c29.268-234.333 137.656-439.111 297.138-590.614l0.421-0.397c151.918-159.942 356.748-268.34 586.341-297.071l4.787-0.489c1.093-0.12 2.36-0.189 3.643-0.189 13.764 0 25.683 7.898 31.472 19.409l0.092 0.202 95.235 202.148c2.362 4.602 3.746 10.041 3.746 15.802 0 12.526-6.541 23.523-16.393 29.764l-0.144 0.085-195.576 125.924c-5.323 3.404-11.814 5.426-18.778 5.426-9.743 0-18.562-3.958-24.937-10.354l-79.041-79.1c-6.377-6.404-15.201-10.367-24.95-10.367-1.547 0-3.071 0.1-4.565 0.293l0.176-0.019c-93.254 15.553-174.047 60.4-234.52 124.601l-0.195 0.208zM812.229 412.646c-19.444 0-35.207 15.763-35.207 35.207v0c0 0.017 0 0.038 0 0.059 0 146.395-118.66 265.076-265.048 265.11h-0.003c-19.444 0-35.207 15.763-35.207 35.207s15.763 35.207 35.207 35.207v0c185.192-0.2 335.265-150.273 335.465-335.446v-0.020c0-0.035 0-0.076 0-0.117 0-19.444-15.763-35.207-35.207-35.207 0 0 0 0 0 0v0zM988.793 412.705c-19.444 0-35.207 15.763-35.207 35.207v0c-0.1 243.868-197.751 441.54-441.602 441.674h-0.013c-19.444 0-35.207 15.763-35.207 35.207s15.763 35.207 35.207 35.207v0c282.665-0.3 511.729-229.364 512.029-512.001v-0.029c0-19.444-15.763-35.207-35.207-35.207v0z" />
<glyph unicode="&#xe916;" glyph-name="Path-302" horiz-adv-x="1022" d="M316.284 519.794c25.497-107.171 163.301-239.885 265.382-265.382 6.339-1.473 13.617-2.317 21.093-2.317 41.592 0 77.081 26.13 90.946 62.868l0.222 0.669c13.1 37.857 48.444 64.556 90.024 64.556 26.737 0 50.896-11.040 68.166-28.81l142.916-142.916c16.651-18.067 26.861-42.292 26.861-68.902s-10.21-50.835-26.925-68.973l0.064 0.071-97.176-97.176c-102.081-102.081-372.553 10.227-612.438 249.88s-347.056 510.357-249.88 612.438l97.176 97.176c18.067 16.651 42.292 26.861 68.902 26.861s50.835-10.21 68.973-26.925l-0.071 0.064 142.894-142.894c17.793-17.292 28.832-41.451 28.832-68.188 0-41.58-26.699-76.923-63.889-89.822l-0.667-0.201c-37.736-12.252-64.537-47.1-64.537-88.207 0-8.488 1.143-16.709 3.283-24.518l-0.152 0.649z" />
<glyph unicode="&#xe919;" glyph-name="Polygon-5" d="M892.262 492.749c15.815-8.917 26.321-25.606 26.321-44.749s-10.505-35.831-26.065-44.616l-0.256-0.133-764.979-424.96c-7.17-4.060-15.747-6.453-24.883-6.453-28.277 0-51.2 22.923-51.2 51.2 0 0.001 0 0.002 0 0.002v849.92c0 0.001 0 0.001 0 0.002 0 28.277 22.923 51.2 51.2 51.2 9.136 0 17.713-2.393 25.139-6.586l-0.256 0.133z" />
<glyph unicode="&#xe91a;" glyph-name="programmer" d="M972.8 448h-375.467c-28.277 0-51.2-22.923-51.2-51.2v0-221.867c0-28.277 22.923-51.2 51.2-51.2v0h136.533v-51.2h-68.267v-34.133h-153.6v92.501c-0.174 54.739-36.973 100.835-87.167 115.080l-0.846 0.205-99.721 27.119v25.6c31.096 21.825 51.177 57.512 51.2 97.891v17.071c9.426 0 17.067 7.641 17.067 17.067v0 51.2c-0.087 75.37-61.163 136.446-136.525 136.533h-153.609c-18.851 0-34.133-15.282-34.133-34.133v0-85.333c0-0.072 0-0.157 0-0.243 0-39.345 26.746-72.444 63.049-82.106l0.593-0.134c1.519-0.427 3.089-0.614 4.625-0.939v-18.978c0.023-40.382 20.104-76.069 50.819-97.641l0.381-0.254v-25.6l-99.772-27.136c-51.013-14.467-87.786-60.549-87.962-115.248v-177.855c0-9.426 7.641-17.067 17.067-17.067v0h989.867c9.426 0 17.067 7.641 17.067 17.067v0 68.267c0 9.426-7.641 17.067-17.067 17.067v0h-102.4v34.133h-68.267v51.2h136.533c28.277 0 51.2 22.923 51.2 51.2v0 221.867c0 28.277-22.923 51.2-51.2 51.2v0zM102.4 499.2v85.333h153.6c56.531-0.058 102.342-45.869 102.4-102.394v-34.139h-11.264c-15.879 0.032-29.218 10.87-33.056 25.55l-0.053 0.238-7.339 29.525c-1.622 6.381-6.683 11.26-13.047 12.593l-0.111 0.019c-1.010 0.217-2.17 0.341-3.358 0.341-0.013 0-0.027 0-0.040 0h0.002c-5.564 0-10.507-2.663-13.622-6.784l-0.031-0.043-10.24-13.653c-6.216-8.131-13.121-15.231-20.777-21.441l-0.232-0.182c-20.209-16.299-46.201-26.163-74.497-26.163-0.024 0-0.048 0-0.071 0h-17.063c-0.132-0.001-0.288-0.002-0.445-0.002-4.417 0-8.688 0.624-12.731 1.789l0.324-0.080c-22.221 5.821-38.349 25.722-38.349 49.389 0 0.037 0 0.073 0 0.11v-0.006zM170.667 396.8v17.067c36.502 0.008 70.024 12.762 96.358 34.053l-0.29-0.227c5.548 4.505 10.527 9.105 15.198 14l0.059 0.063c8.431-26.038 31.39-44.983 59.084-47.393l0.256-0.018v-17.545c0-47.128-38.205-85.333-85.333-85.333s-85.333 38.205-85.333 85.333v0zM256 277.333c12.189 0.038 23.928 1.907 34.975 5.346l-0.841-0.226v-22.187c0.059-5.076 2.348-9.605 5.933-12.661l0.024-0.020-40.090-33.399-40.090 33.382c3.612 3.079 5.903 7.616 5.956 12.688v22.196c10.206-3.213 21.944-5.082 34.114-5.12h0.019zM96.99 213.248l80.503 21.914 67.584-56.32c2.937-2.459 6.755-3.953 10.923-3.953s7.986 1.494 10.949 3.975l-0.027-0.022 67.584 56.32 80.452-21.897c36.464-10.333 62.756-43.257 62.908-82.346v-92.518h-51.2v85.333h-34.133v-85.333h-273.067v85.333h-34.133v-85.333h-51.2v92.501c0.134 39.093 26.41 72.012 62.252 82.2l0.605 0.147zM989.867 4.267v-34.133h-955.733v34.133zM768 72.533v187.733h34.133v-187.733zM989.867 174.933c0-9.426-7.641-17.067-17.067-17.067v0h-136.533v119.467c0 9.426-7.641 17.067-17.067 17.067v0h-68.267c-9.426 0-17.067-7.641-17.067-17.067v0-119.467h-136.533c-9.426 0-17.067 7.641-17.067 17.067v0 221.867c0 9.426 7.641 17.067 17.067 17.067v0h375.467c9.426 0 17.067-7.641 17.067-17.067v0zM972.8 960h-307.2c-28.277 0-51.2-22.923-51.2-51.2v0-17.067h-17.067c-28.277 0-51.2-22.923-51.2-51.2v0-238.933c0-28.277 22.923-51.2 51.2-51.2v0h307.2c28.277 0 51.2 22.923 51.2 51.2v0 17.067h17.067c28.277 0 51.2 22.923 51.2 51.2v0 238.933c0 28.277-22.923 51.2-51.2 51.2v0zM597.333 857.6h307.2c9.426 0 17.067-7.641 17.067-17.067v0-17.067h-341.333v17.067c0 9.426 7.641 17.067 17.067 17.067v0zM904.533 584.533h-307.2c-9.426 0-17.067 7.641-17.067 17.067v0 187.733h341.333v-187.733c0-9.426-7.641-17.067-17.067-17.067v0zM989.867 669.867c0-9.426-7.641-17.067-17.067-17.067v0h-17.067v187.733c0 28.277-22.923 51.2-51.2 51.2v0h-256v17.067c0 9.426 7.641 17.067 17.067 17.067v0h307.2c9.426 0 17.067-7.641 17.067-17.067v0zM733.867 721.067h34.133v-34.133h-34.133zM802.133 721.067h34.133v-34.133h-34.133zM665.6 721.067h34.133v-34.133h-34.133zM102.4 891.733h68.267v-34.133h-68.267zM204.8 891.733h204.8v-34.133h-204.8zM119.467 755.2h68.267v-34.133h-68.267zM221.867 755.2h204.8v-34.133h-204.8zM136.533 823.467h68.267v-34.133h-68.267zM238.933 823.467h204.8v-34.133h-204.8z" />
<glyph unicode="&#xe91b;" glyph-name="star-2" horiz-adv-x="1026" d="M998.284 593.774l-315.276 48.18-140.986 301.123c-5.852 10.145-16.64 16.863-28.998 16.863s-23.146-6.718-28.912-16.702l-0.086-0.161-141.287-301.123-315.517-48.18c-15.544-2.384-27.311-15.662-27.311-31.689 0-8.777 3.529-16.73 9.246-22.517l-0.003 0.003 228.854-234.876-54.202-331.898c-0.254-1.518-0.4-3.267-0.4-5.050 0-17.728 14.372-32.1 32.1-32.1 5.67 0 10.996 1.47 15.619 4.049l-0.163-0.084 281.611 155.621 281.611-155.681c4.478-2.528 9.833-4.018 15.535-4.018 17.695 0 32.040 14.345 32.040 32.040 0 1.823-0.152 3.611-0.445 5.35l0.026-0.188-54.202 331.898 228.854 234.876c5.675 5.785 9.178 13.72 9.178 22.472 0 16.015-11.728 29.29-27.063 31.707l-0.182 0.024z" />
<glyph unicode="&#xe91c;" glyph-name="tax" d="M927.506-64.086h25.686c39.247 0.049 71.050 31.852 71.099 71.094v421.256c-0.049 39.247-31.852 71.050-71.094 71.099h-100.42c0.95 10.629 1.491 22.993 1.491 35.484 0 117.432-47.857 223.686-125.132 300.324l-0.029 0.029c-78.006 75.672-183.981 122.897-300.977 124.727l-0.355 0.004c-98.033-1.17-188.187-33.952-260.986-88.601l1.146 0.823c-3.646-2.768-5.976-7.105-5.976-11.987 0-8.289 6.72-15.009 15.009-15.009 3.408 0 6.551 1.136 9.070 3.049l-0.037-0.027c62.788 46.491 140.495 76.25 224.855 81.351l1.182 0.057v-396.164c0.091-8.253 6.802-14.909 15.068-14.909 4.1 0 7.818 1.638 10.535 4.294l-0.003-0.003 280.834 280.132c65.518-70.021 105.753-164.407 105.753-268.191 0-12.421-0.576-24.708-1.704-36.835l0.117 1.554h-121.889l-86.973 86.973c-2.723 2.663-6.453 4.305-10.567 4.305-8.275 0-14.998-6.647-15.119-14.894v-76.384h-35.258c-39.247-0.049-71.050-31.852-71.099-71.094v-286.541c-16.229-2.356-34.974-3.707-54.033-3.716h-0.011c-336.367-0.137-521.495 395.428-302.873 652.289 2.184 2.588 3.511 5.961 3.511 9.644 0 8.285-6.716 15.001-15.001 15.001-4.509 0-8.554-1.99-11.304-5.139l-0.015-0.018c-251.090-298.523-5.925-745.409 379.725-698.352v-104.457c0.010-39.277 31.828-71.119 71.094-71.167h294.812c8.285 0 15.001 6.716 15.001 15.001s-6.716 15.001-15.001 15.001v0h-294.807c-22.698 0-41.098 18.4-41.098 41.098v0 421.251c0 22.698 18.4 41.098 41.098 41.098v0h50.345c8.285 0 15.001 6.716 15.001 15.001v0 55.242l65.756-65.756c2.712-2.716 6.459-4.397 10.599-4.401h258.745c22.698 0 41.098-18.4 41.098-41.098v0-421.251c0-22.698-18.4-41.098-41.098-41.098v0h-25.686c-8.285 0-15.001-6.716-15.001-15.001s6.716-15.001 15.001-15.001v0zM677.923 804.822h-235.798v47.947h220.095c12.992-9.517 24.385-18.926 35.211-28.938l-0.261 0.239zM599.838 726.925h-157.712v47.947h205.728zM521.752 649.028h-79.627v47.947h127.66zM442.125 929.416c63.401-2.647 122.284-19.622 174.25-47.746l-2.119 1.049h-172.131zM442.125 619.026h49.574l-49.574-49.523zM680.697 26.757c1.583-0.62 3.415-0.98 5.332-0.98 6.365 0 11.805 3.965 13.983 9.559l0.035 0.102 7.911 20.789h54.129l7.826-20.754c2.369-5.368 7.645-9.046 13.779-9.046 8.294 0 15.018 6.724 15.018 15.018 0 1.654-0.267 3.246-0.761 4.734l0.031-0.106-46.235 122.3c-2.691 6.68-9.118 11.31-16.627 11.31s-13.937-4.629-16.585-11.19l-0.043-0.12-46.577-122.283c-0.608-1.569-0.961-3.385-0.961-5.283 0-6.397 4.004-11.859 9.643-14.016l0.103-0.035zM735.169 127.618l15.617-41.389h-31.388zM825.704 28.504c2.402-1.692 5.389-2.704 8.612-2.704 5.046 0 9.513 2.481 12.248 6.289l0.031 0.045 34.522 49.009 34.471-48.992c2.75-3.873 7.218-6.37 12.269-6.37 8.285 0 15.001 6.716 15.001 15.001 0 3.233-1.023 6.227-2.763 8.677l0.031-0.046-40.652 57.794 34.505 48.975c1.628 2.364 2.6 5.289 2.6 8.441 0 8.285-6.716 15.001-15.001 15.001-4.962 0-9.362-2.409-12.092-6.122l-0.029-0.042-28.323-40.19-28.272 40.19c-2.75 3.873-7.218 6.37-12.269 6.37-8.285 0-15.001-6.716-15.001-15.001 0-3.233 1.023-6.227 2.763-8.677l-0.031 0.046 34.454-48.975-40.704-57.794c-1.718-2.407-2.746-5.409-2.746-8.652 0-5.054 2.5-9.525 6.33-12.243l0.046-0.031zM612.373 25.781c8.285 0 15.001 6.716 15.001 15.001v0 109.029h19.384c8.285 0 15.001 6.716 15.001 15.001s-6.716 15.001-15.001 15.001h-68.496c-8.285 0-15.001-6.716-15.001-15.001s6.716-15.001 15.001-15.001h19.11v-109.029c0-8.285 6.716-15.001 15.001-15.001v0zM688.54 211.92c2.356-1.535 5.239-2.448 8.335-2.448 5.129 0 9.673 2.506 12.474 6.36l0.031 0.044 113.601 166.942c1.702 2.4 2.721 5.389 2.721 8.616 0 8.285-6.716 15.001-15.001 15.001-5.206 0-9.792-2.652-12.482-6.678l-0.034-0.055-113.601-166.942c-1.628-2.364-2.601-5.289-2.601-8.442 0-5.131 2.576-9.661 6.506-12.365l0.051-0.033zM856.544 258.702c0.093 1.097 0.146 2.373 0.146 3.663 0 23.754-18.053 43.291-41.187 45.639l-0.194 0.016c-54.677-2.654-54.66-95.997 0-98.634 23.328 2.364 41.381 21.901 41.381 45.655 0 1.289-0.053 2.566-0.157 3.828l0.011-0.165zM804.076 258.702c0 11.062 5.925 19.316 11.233 19.316s11.233-8.254 11.233-19.316-5.925-19.316-11.233-19.316-11.165 8.185-11.165 19.316zM690.783 307.626c23.328 2.364 41.381 21.901 41.381 45.655 0 1.289-0.053 2.566-0.157 3.828l0.011-0.165c-1.712 65.654-80.483 65.208-82.452 0-0.093-1.097-0.147-2.375-0.147-3.664 0-23.748 18.044-43.281 41.17-45.637l0.194-0.016zM690.783 376.259c5.308 0 11.233-8.254 11.233-19.316s-5.925-19.316-11.233-19.316-11.233 8.254-11.233 19.316 5.959 19.316 11.233 19.316z" />
<glyph unicode="&#xe91d;" glyph-name="up-arrow" d="M574.259 19.405v740.915l203.981-204.8c10.584-10.636 25.234-17.217 41.421-17.217 32.272 0 58.433 26.161 58.433 58.433 0 16.085-6.499 30.652-17.015 41.218l-303.819 305.252c-10.581 10.581-25.198 17.125-41.344 17.125s-30.763-6.544-41.344-17.125v0l-303.821-305.254c-10.513-10.564-17.012-25.131-17.012-41.216 0-32.272 26.161-58.433 58.433-58.433 16.187 0 30.836 6.582 41.419 17.215l0.002 0.002 203.981 204.8v-740.71c0-32.264 26.155-58.419 58.419-58.419s58.419 26.155 58.419 58.419v0z" />
<glyph unicode="&#xe91e;" glyph-name="user" d="M505.495 960c-142.649 0-258.289-115.64-258.289-258.289s115.64-258.289 258.289-258.289c142.649 0 258.289 115.64 258.289 258.289v0c-0.41 142.484-115.805 257.879-258.25 258.289h-0.039zM948.706 237.116c-7.509 18.102-16.213 33.682-26.462 48.086l0.501-0.741c-50.149 74.499-129.064 126.337-220.472 139.659l-1.736 0.208c-1.781 0.236-3.839 0.371-5.93 0.371-10.002 0-19.282-3.090-26.938-8.366l0.16 0.104c-44.9-33.118-101.325-53.004-162.394-53.004s-117.494 19.887-163.152 53.537l0.758-0.533c-6.982 5.321-15.828 8.525-25.421 8.525-2.575 0-5.096-0.231-7.543-0.673l0.257 0.038c-93.247-13.224-172.267-65.153-221.481-138.711l-0.727-1.155c-9.43-13.62-18.115-29.176-25.266-45.556l-0.696-1.789c-1.253-2.821-1.983-6.111-1.983-9.572 0-4.364 1.16-8.458 3.19-11.989l-0.062 0.117c10.312-17.363 20.374-32.089 31.25-46.154l-0.771 1.037c16.045-21.758 33.065-40.937 51.652-58.473l0.21-0.196c15.926-15.362 32.827-30.124 50.436-44.030l1.427-1.087c84.54-63.396 191.207-101.518 306.778-101.518s222.239 38.122 308.115 102.476l-1.336-0.958c19.090 14.486 36.011 29.267 51.864 45.117l-0.001-0.001c18.415 17.929 35.408 37.080 50.939 57.409l0.924 1.26c10.347 13.126 20.416 27.86 29.471 43.262l1.008 1.855c3.261 3.445 5.266 8.108 5.266 13.24 0 2.98-0.676 5.801-1.883 8.32l0.050-0.116z" />
<glyph unicode="&#xe91f;" glyph-name="wallet" d="M954.137 122.18h-162.868c-102.824 0-186.18 83.355-186.18 186.18s83.355 186.18 186.18 186.18h162.868c12.848 0 23.263 10.415 23.263 23.263v0 69.814c-0.149 48.648-37.674 88.485-85.359 92.308l-0.327 0.021-133.614 233.479c-16.159 27.994-45.936 46.533-80.044 46.533-17.065 0-33.047-4.641-46.751-12.729l0.429 0.234-458.166-266.744h-80.492c-51.423-0.014-93.109-41.683-93.15-93.098v-558.519c0.041-51.402 41.7-93.061 93.098-93.102h791.322c51.402 0.041 93.061 41.7 93.102 93.098v69.818c0 0 0 0 0 0 0 12.848-10.415 23.263-23.263 23.263-0.017 0-0.034 0-0.051 0h0.003zM786.969 769.279l50.73-88.56h-202.921zM266.068 680.718l389.1 226.522c6.533 3.909 14.411 6.22 22.83 6.22 4.176 0 8.219-0.569 12.055-1.633l-0.316 0.075c12.057-3.291 21.905-11.076 27.832-21.399l0.118-0.222-359.749-209.564zM954.162 447.988h-162.916c-77.115 0-139.629-62.514-139.629-139.629s62.514-139.629 139.629-139.629v0h162.916c38.541 0.041 69.773 31.274 69.814 69.81v139.633c-0.041 38.541-31.274 69.773-69.81 69.814h-0.004zM791.245 261.808c-25.709 0-46.551 20.842-46.551 46.551s20.842 46.551 46.551 46.551c25.709 0 46.551-20.842 46.551-46.551v0c-0.027-25.698-20.853-46.523-46.548-46.551h-0.003z" />
<glyph unicode="&#xe920;" d="M832-64h-640c-106.039 0-192 85.961-192 192v0 640c0 106.039 85.961 192 192 192v0h640c106.039 0 192-85.961 192-192v0-640c0-106.039-85.961-192-192-192v0z" />
<glyph unicode="&#xe921;" d="M512 320c0 0-0.001 0-0.002 0-6.817 0-12.969 2.846-17.334 7.415l-0.009 0.009-168 176c-4.113 4.3-6.644 10.143-6.644 16.576 0 13.251 10.738 23.993 23.987 24h88.001v184c0.036 22.077 17.923 39.964 39.997 40h80.003c22.077-0.036 39.964-17.923 40-39.997v-184.003h88c13.25-0.007 23.988-10.749 23.988-24 0-6.433-2.531-12.276-6.652-16.585l0.009 0.009-168-176c-4.373-4.578-10.525-7.424-17.342-7.424-0.001 0-0.001 0-0.002 0v0z" />
<glyph unicode="&#xe922;" d="M840 128h-656c-30.913 0.036-55.964 25.087-56 55.997v16.003c0.036 30.913 25.087 55.964 55.997 56h656.003c30.913-0.036 55.964-25.087 56-55.997v-16.003c-0.036-30.913-25.087-55.964-55.997-56h-0.003z" />
<glyph unicode="&#xe923;" glyph-name="Group-5771" horiz-adv-x="1380" d="M1380.174 826.435h-1380.174v133.565h1380.174zM1380.174 381.217h-1068.522v133.565h1068.522zM1380.174-64h-667.826v133.565h667.826z" />
<glyph unicode="&#xe924;" glyph-name="Group-71611" horiz-adv-x="22" d="M0 151.843v808.157h21.584v-808.157zM0-64v129.506h21.584v-129.506z" />
<glyph unicode="&#xe925;" d="M832-64h-640c-106.039 0-192 85.961-192 192v0 640c0 106.039 85.961 192 192 192v0h640c106.039 0 192-85.961 192-192v0-640c0-106.039-85.961-192-192-192v0z" />
<glyph unicode="&#xe926;" d="M768 330.656v-16c-0.010-4.414-1.806-8.407-4.704-11.296v0l-106.656-106.656c-2.889-2.898-6.882-4.694-11.294-4.704h-16.002v122.656c0 8.837 7.163 16 16 16v0z" />
<glyph unicode="&#xe927;" d="M709.344 597.344h-160v-48c0-20.625-16.719-37.344-37.344-37.344s-37.344 16.719-37.344 37.344v0 48h-160c-0.010 0-0.021 0-0.032 0-32.377 0-58.624-26.247-58.624-58.624 0-0.023 0-0.045 0-0.068v0.004-288c0-0.009 0-0.021 0-0.032 0-32.377 26.247-58.624 58.624-58.624 0.011 0 0.023 0 0.034 0h293.342v122.656c0.018 20.617 16.727 37.326 37.342 37.344h122.658v186.656c0 0.019 0 0.041 0 0.064 0 32.377-26.247 58.624-58.624 58.624-0.011 0-0.023 0-0.034 0h0.002zM554.656 288h-197.344c-8.837 0-16 7.163-16 16s7.163 16 16 16v0h197.344c8.837 0 16-7.163 16-16s-7.163-16-16-16v0zM666.656 373.344h-309.344c-8.837 0-16 7.163-16 16s7.163 16 16 16v0h309.344c8.837 0 16-7.163 16-16s-7.163-16-16-16v0zM666.656 458.656h-309.344c-8.837 0-16 7.163-16 16s7.163 16 16 16v0h309.344c8.837 0 16-7.163 16-16s-7.163-16-16-16v0z" />
<glyph unicode="&#xe928;" d="M512 533.344c-8.837 0-16 7.163-16 16v0 80c0 8.837 7.163 16 16 16s16-7.163 16-16v0-80c0-8.837-7.163-16-16-16v0z" />
<glyph unicode="&#xe929;" d="M512 618.656c-0.009 0-0.021 0-0.032 0-23.576 0-42.688 19.112-42.688 42.688s19.112 42.688 42.688 42.688c23.576 0 42.688-19.112 42.688-42.688v0c-0.018-23.557-19.101-42.652-42.653-42.688h-0.003z" />
</font>
</defs>
</svg>
